<svg xmlns="http://www.w3.org/2000/svg" width="600" height="600" viewBox="0 0 600 600">
  <defs>
    <style>
      .cls-1 {
        fill: #284361;
      }

      .cls-2, .cls-3 {
        fill: #e535ab;
      }

      .cls-2 {
        fill-rule: evenodd;
      }
    </style>
  </defs>
  <rect class="cls-1" width="600" height="600" rx="20" ry="20"/>
  <path class="cls-2" d="M127,149L255,75l14,19L139,170Zm-20,79V378l-25,2L81,228h26Zm37,207s115.2,65.8,119,68c-3.4,4-9,8.4-13,21-3.8-1.8-118-68-118-68Zm194,69,119-69,12,20L350,524ZM518,229V376l-24,1-1-150ZM333,96l127,74,14-22L346,74ZM494,375L332,96l-21,11L473,385ZM144,407H457l-2,25H145Zm-38-32L266,97l23,11L128,387Z"/>
  <path class="cls-2" d="M94,130a52,52,0,1,1-52,52A52,52,0,0,1,94,130Zm0,239a52,52,0,1,1-52,52A52,52,0,0,1,94,369ZM506,130a52,52,0,1,1-52,52A52,52,0,0,1,506,130Zm0,239a52,52,0,1,1-52,52A52,52,0,0,1,506,369ZM300,9a52,52,0,1,1-52,52A52,52,0,0,1,300,9Zm0,478a52,52,0,1,1-52,52A52,52,0,0,1,300,487Zm0,0a52,52,0,1,1-52,52A52,52,0,0,1,300,487Z"/>
  <circle class="cls-3" cx="300" cy="539" r="52"/>
</svg>
